<?xml version="1.0" encoding="UTF-8" standalone="no"?><svg xmlns="http://www.w3.org/2000/svg" xmlns:xlink="http://www.w3.org/1999/xlink" contentStyleType="text/css" height="1039px" preserveAspectRatio="none" style="width:540px;height:1039px;background:#FFFFFF;" version="1.1" viewBox="0 0 540 1039" width="540px" zoomAndPan="magnify"><defs/><g><!--MD5=[b6dcce5e5ef3c84b0b048d11301373dd]
class Game--><g id="elem_Game"><rect codeLine="2" fill="#F1F1F1" height="136.0469" id="Game" rx="2.5" ry="2.5" style="stroke:#181818;stroke-width:0.5;" width="183" x="41" y="399"/><ellipse cx="109.25" cy="415" fill="#ADD1B2" rx="11" ry="11" style="stroke:#181818;stroke-width:1.0;"/><path d="M112.0156,410.875 Q112.1719,410.6563 112.3594,410.5469 Q112.5469,410.4375 112.7656,410.4375 Q113.1406,410.4375 113.375,410.7031 Q113.6094,410.9531 113.6094,411.5625 L113.6094,413.0156 Q113.6094,413.625 113.375,413.8906 Q113.1406,414.1563 112.7656,414.1563 Q112.4219,414.1563 112.2188,413.9531 Q112.0156,413.7656 111.9063,413.25 Q111.8594,412.8906 111.6719,412.7031 Q111.3438,412.3281 110.7344,412.1094 Q110.125,411.8906 109.5,411.8906 Q108.7344,411.8906 108.0938,412.2188 Q107.4688,412.5469 106.9688,413.2969 Q106.4844,414.0469 106.4844,415.0781 L106.4844,416.1719 Q106.4844,417.4063 107.375,418.2344 Q108.2656,419.0469 109.8594,419.0469 Q110.7969,419.0469 111.4531,418.7969 Q111.8438,418.6406 112.2656,418.2031 Q112.5313,417.9375 112.6719,417.8594 Q112.8281,417.7813 113.0313,417.7813 Q113.3594,417.7813 113.6094,418.0469 Q113.875,418.2969 113.875,418.6406 Q113.875,418.9844 113.5313,419.3906 Q113.0313,419.9688 112.2344,420.2969 Q111.1563,420.75 109.8594,420.75 Q108.3438,420.75 107.1406,420.125 Q106.1563,419.625 105.4688,418.5625 Q104.7813,417.4844 104.7813,416.2031 L104.7813,415.0469 Q104.7813,413.7188 105.3906,412.5781 Q106.0156,411.4219 107.1094,410.8125 Q108.2031,410.1875 109.4375,410.1875 Q110.1719,410.1875 110.8125,410.3594 Q111.4688,410.5156 112.0156,410.875 Z " fill="#000000"/><text fill="#000000" font-family="sans-serif" font-size="14" lengthAdjust="spacing" textLength="38" x="129.75" y="420.7285">Game</text><line style="stroke:#181818;stroke-width:0.5;" x1="42" x2="223" y1="431" y2="431"/><ellipse cx="52" cy="445.3047" fill="none" rx="3" ry="3" style="stroke:#038048;stroke-width:1.0;"/><text fill="#000000" font-family="sans-serif" font-size="14" lengthAdjust="spacing" text-decoration="underline" textLength="50" x="61" y="449.5332">day : int</text><ellipse cx="52" cy="462.9141" fill="none" rx="3" ry="3" style="stroke:#038048;stroke-width:1.0;"/><text fill="#000000" font-family="sans-serif" font-size="14" lengthAdjust="spacing" text-decoration="underline" textLength="65" x="61" y="467.1426">power : int</text><ellipse cx="52" cy="480.5234" fill="none" rx="3" ry="3" style="stroke:#038048;stroke-width:1.0;"/><text fill="#000000" font-family="sans-serif" font-size="14" lengthAdjust="spacing" text-decoration="underline" textLength="65" x="61" y="484.752">points : int</text><line style="stroke:#181818;stroke-width:0.5;" x1="42" x2="223" y1="491.8281" y2="491.8281"/><ellipse cx="52" cy="506.1328" fill="#84BE84" rx="3" ry="3" style="stroke:#038048;stroke-width:1.0;"/><text fill="#000000" font-family="sans-serif" font-size="14" lengthAdjust="spacing" textLength="111" x="61" y="510.3613">switchDay() : void</text><ellipse cx="52" cy="523.7422" fill="#84BE84" rx="3" ry="3" style="stroke:#038048;stroke-width:1.0;"/><text fill="#000000" font-family="sans-serif" font-size="14" lengthAdjust="spacing" textLength="157" x="61" y="527.9707">setPower(int N) : voids11</text></g><!--MD5=[2cb47ba637a0d19583e6199456f6ad0b]
class Player--><g id="elem_Player"><rect codeLine="11" fill="#F1F1F1" height="136.0469" id="Player" rx="2.5" ry="2.5" style="stroke:#181818;stroke-width:0.5;" width="238" x="285.5" y="7"/><ellipse cx="380.25" cy="23" fill="#ADD1B2" rx="11" ry="11" style="stroke:#181818;stroke-width:1.0;"/><path d="M383.0156,18.875 Q383.1719,18.6563 383.3594,18.5469 Q383.5469,18.4375 383.7656,18.4375 Q384.1406,18.4375 384.375,18.7031 Q384.6094,18.9531 384.6094,19.5625 L384.6094,21.0156 Q384.6094,21.625 384.375,21.8906 Q384.1406,22.1563 383.7656,22.1563 Q383.4219,22.1563 383.2188,21.9531 Q383.0156,21.7656 382.9063,21.25 Q382.8594,20.8906 382.6719,20.7031 Q382.3438,20.3281 381.7344,20.1094 Q381.125,19.8906 380.5,19.8906 Q379.7344,19.8906 379.0938,20.2188 Q378.4688,20.5469 377.9688,21.2969 Q377.4844,22.0469 377.4844,23.0781 L377.4844,24.1719 Q377.4844,25.4063 378.375,26.2344 Q379.2656,27.0469 380.8594,27.0469 Q381.7969,27.0469 382.4531,26.7969 Q382.8438,26.6406 383.2656,26.2031 Q383.5313,25.9375 383.6719,25.8594 Q383.8281,25.7813 384.0313,25.7813 Q384.3594,25.7813 384.6094,26.0469 Q384.875,26.2969 384.875,26.6406 Q384.875,26.9844 384.5313,27.3906 Q384.0313,27.9688 383.2344,28.2969 Q382.1563,28.75 380.8594,28.75 Q379.3438,28.75 378.1406,28.125 Q377.1563,27.625 376.4688,26.5625 Q375.7813,25.4844 375.7813,24.2031 L375.7813,23.0469 Q375.7813,21.7188 376.3906,20.5781 Q377.0156,19.4219 378.1094,18.8125 Q379.2031,18.1875 380.4375,18.1875 Q381.1719,18.1875 381.8125,18.3594 Q382.4688,18.5156 383.0156,18.875 Z " fill="#000000"/><text fill="#000000" font-family="sans-serif" font-size="14" lengthAdjust="spacing" textLength="40" x="400.75" y="28.7285">Player</text><line style="stroke:#181818;stroke-width:0.5;" x1="286.5" x2="522.5" y1="39" y2="39"/><rect fill="none" height="6" style="stroke:#C82930;stroke-width:1.0;" width="6" x="293.5" y="50.3047"/><text fill="#000000" font-family="sans-serif" font-size="14" lengthAdjust="spacing" textLength="117" x="305.5" y="57.5332">activeRoom : int[][]</text><rect fill="none" height="6" style="stroke:#C82930;stroke-width:1.0;" width="6" x="293.5" y="67.9141"/><text fill="#000000" font-family="sans-serif" font-size="14" lengthAdjust="spacing" textLength="65" x="305.5" y="75.1426">points : int</text><line style="stroke:#181818;stroke-width:0.5;" x1="286.5" x2="522.5" y1="82.2188" y2="82.2188"/><ellipse cx="296.5" cy="96.5234" fill="#84BE84" rx="3" ry="3" style="stroke:#038048;stroke-width:1.0;"/><text fill="#000000" font-family="sans-serif" font-size="14" lengthAdjust="spacing" textLength="119" x="305.5" y="100.752">moveRoom() : void</text><ellipse cx="296.5" cy="114.1328" fill="#84BE84" rx="3" ry="3" style="stroke:#038048;stroke-width:1.0;"/><text fill="#000000" font-family="sans-serif" font-size="14" lengthAdjust="spacing" textLength="173" x="305.5" y="118.3613">addItemToInventory() : void</text><ellipse cx="296.5" cy="131.7422" fill="#84BE84" rx="3" ry="3" style="stroke:#038048;stroke-width:1.0;"/><text fill="#000000" font-family="sans-serif" font-size="14" lengthAdjust="spacing" textLength="212" x="305.5" y="135.9707">removeItemFromInventory() : void</text></g><!--MD5=[ee084734eb3a5ffad99a0de9980f769b]
class Inventory--><g id="elem_Inventory"><rect codeLine="20" fill="#F1F1F1" height="136.0469" id="Inventory" rx="2.5" ry="2.5" style="stroke:#181818;stroke-width:0.5;" width="246" x="281.5" y="203"/><ellipse cx="371.25" cy="219" fill="#ADD1B2" rx="11" ry="11" style="stroke:#181818;stroke-width:1.0;"/><path d="M374.0156,214.875 Q374.1719,214.6563 374.3594,214.5469 Q374.5469,214.4375 374.7656,214.4375 Q375.1406,214.4375 375.375,214.7031 Q375.6094,214.9531 375.6094,215.5625 L375.6094,217.0156 Q375.6094,217.625 375.375,217.8906 Q375.1406,218.1563 374.7656,218.1563 Q374.4219,218.1563 374.2188,217.9531 Q374.0156,217.7656 373.9063,217.25 Q373.8594,216.8906 373.6719,216.7031 Q373.3438,216.3281 372.7344,216.1094 Q372.125,215.8906 371.5,215.8906 Q370.7344,215.8906 370.0938,216.2188 Q369.4688,216.5469 368.9688,217.2969 Q368.4844,218.0469 368.4844,219.0781 L368.4844,220.1719 Q368.4844,221.4063 369.375,222.2344 Q370.2656,223.0469 371.8594,223.0469 Q372.7969,223.0469 373.4531,222.7969 Q373.8438,222.6406 374.2656,222.2031 Q374.5313,221.9375 374.6719,221.8594 Q374.8281,221.7813 375.0313,221.7813 Q375.3594,221.7813 375.6094,222.0469 Q375.875,222.2969 375.875,222.6406 Q375.875,222.9844 375.5313,223.3906 Q375.0313,223.9688 374.2344,224.2969 Q373.1563,224.75 371.8594,224.75 Q370.3438,224.75 369.1406,224.125 Q368.1563,223.625 367.4688,222.5625 Q366.7813,221.4844 366.7813,220.2031 L366.7813,219.0469 Q366.7813,217.7188 367.3906,216.5781 Q368.0156,215.4219 369.1094,214.8125 Q370.2031,214.1875 371.4375,214.1875 Q372.1719,214.1875 372.8125,214.3594 Q373.4688,214.5156 374.0156,214.875 Z " fill="#000000"/><text fill="#000000" font-family="sans-serif" font-size="14" lengthAdjust="spacing" textLength="58" x="391.75" y="224.7285">Inventory</text><line style="stroke:#181818;stroke-width:0.5;" x1="282.5" x2="526.5" y1="235" y2="235"/><rect fill="none" height="6" style="stroke:#C82930;stroke-width:1.0;" width="6" x="289.5" y="246.3047"/><text fill="#000000" font-family="sans-serif" font-size="14" lengthAdjust="spacing" textLength="175" x="301.5" y="253.5332">listOfItems : ArrayList&lt;Item&gt;</text><line style="stroke:#181818;stroke-width:0.5;" x1="282.5" x2="526.5" y1="260.6094" y2="260.6094"/><ellipse cx="292.5" cy="274.9141" fill="#84BE84" rx="3" ry="3" style="stroke:#038048;stroke-width:1.0;"/><text fill="#000000" font-family="sans-serif" font-size="14" lengthAdjust="spacing" textLength="220" x="301.5" y="279.1426">getInventoryList() : ArrayList&lt;Item&gt;</text><ellipse cx="292.5" cy="292.5234" fill="#84BE84" rx="3" ry="3" style="stroke:#038048;stroke-width:1.0;"/><text fill="#000000" font-family="sans-serif" font-size="14" lengthAdjust="spacing" textLength="154" x="301.5" y="296.752">addItem(Item item) : void</text><ellipse cx="292.5" cy="310.1328" fill="#84BE84" rx="3" ry="3" style="stroke:#038048;stroke-width:1.0;"/><text fill="#000000" font-family="sans-serif" font-size="14" lengthAdjust="spacing" textLength="177" x="301.5" y="314.3613">removeItem(Item item) : void</text><ellipse cx="292.5" cy="327.7422" fill="#84BE84" rx="3" ry="3" style="stroke:#038048;stroke-width:1.0;"/><text fill="#000000" font-family="sans-serif" font-size="14" lengthAdjust="spacing" textLength="109" x="301.5" y="331.9707">printItems() : void</text></g><!--MD5=[44a1b4afaef76c16e6c9ec4990ad0c8d]
class Item--><g id="elem_Item"><rect codeLine="29" fill="#F1F1F1" height="118.4375" id="Item" rx="2.5" ry="2.5" style="stroke:#181818;stroke-width:0.5;" width="258" x="275.5" y="408"/><ellipse cx="387.25" cy="424" fill="#ADD1B2" rx="11" ry="11" style="stroke:#181818;stroke-width:1.0;"/><path d="M390.0156,419.875 Q390.1719,419.6563 390.3594,419.5469 Q390.5469,419.4375 390.7656,419.4375 Q391.1406,419.4375 391.375,419.7031 Q391.6094,419.9531 391.6094,420.5625 L391.6094,422.0156 Q391.6094,422.625 391.375,422.8906 Q391.1406,423.1563 390.7656,423.1563 Q390.4219,423.1563 390.2188,422.9531 Q390.0156,422.7656 389.9063,422.25 Q389.8594,421.8906 389.6719,421.7031 Q389.3438,421.3281 388.7344,421.1094 Q388.125,420.8906 387.5,420.8906 Q386.7344,420.8906 386.0938,421.2188 Q385.4688,421.5469 384.9688,422.2969 Q384.4844,423.0469 384.4844,424.0781 L384.4844,425.1719 Q384.4844,426.4063 385.375,427.2344 Q386.2656,428.0469 387.8594,428.0469 Q388.7969,428.0469 389.4531,427.7969 Q389.8438,427.6406 390.2656,427.2031 Q390.5313,426.9375 390.6719,426.8594 Q390.8281,426.7813 391.0313,426.7813 Q391.3594,426.7813 391.6094,427.0469 Q391.875,427.2969 391.875,427.6406 Q391.875,427.9844 391.5313,428.3906 Q391.0313,428.9688 390.2344,429.2969 Q389.1563,429.75 387.8594,429.75 Q386.3438,429.75 385.1406,429.125 Q384.1563,428.625 383.4688,427.5625 Q382.7813,426.4844 382.7813,425.2031 L382.7813,424.0469 Q382.7813,422.7188 383.3906,421.5781 Q384.0156,420.4219 385.1094,419.8125 Q386.2031,419.1875 387.4375,419.1875 Q388.1719,419.1875 388.8125,419.3594 Q389.4688,419.5156 390.0156,419.875 Z " fill="#000000"/><text fill="#000000" font-family="sans-serif" font-size="14" lengthAdjust="spacing" textLength="26" x="407.75" y="429.7285">Item</text><line style="stroke:#181818;stroke-width:0.5;" x1="276.5" x2="532.5" y1="440" y2="440"/><rect fill="none" height="6" style="stroke:#C82930;stroke-width:1.0;" width="6" x="283.5" y="451.3047"/><text fill="#000000" font-family="sans-serif" font-size="14" lengthAdjust="spacing" textLength="84" x="295.5" y="458.5332">name : String</text><rect fill="none" height="6" style="stroke:#C82930;stroke-width:1.0;" width="6" x="283.5" y="468.9141"/><text fill="#000000" font-family="sans-serif" font-size="14" lengthAdjust="spacing" textLength="201" x="295.5" y="476.1426">applianceReference : Appliance</text><line style="stroke:#181818;stroke-width:0.5;" x1="276.5" x2="532.5" y1="483.2188" y2="483.2188"/><ellipse cx="286.5" cy="497.5234" fill="#84BE84" rx="3" ry="3" style="stroke:#038048;stroke-width:1.0;"/><text fill="#000000" font-family="sans-serif" font-size="14" lengthAdjust="spacing" textLength="232" x="295.5" y="501.752">getApplianceReference() : Appliance</text><ellipse cx="286.5" cy="515.1328" fill="#84BE84" rx="3" ry="3" style="stroke:#038048;stroke-width:1.0;"/><text fill="#000000" font-family="sans-serif" font-size="14" lengthAdjust="spacing" textLength="141" x="295.5" y="519.3613">getItemName() : String</text></g><!--MD5=[5b58cc52d91b3961365632140c60fe14]
class Appliance--><g id="elem_Appliance"><rect codeLine="37" fill="#F1F1F1" height="118.4375" id="Appliance" rx="2.5" ry="2.5" style="stroke:#181818;stroke-width:0.5;" width="222" x="293.5" y="604"/><ellipse cx="369.25" cy="620" fill="#ADD1B2" rx="11" ry="11" style="stroke:#181818;stroke-width:1.0;"/><path d="M372.0156,615.875 Q372.1719,615.6563 372.3594,615.5469 Q372.5469,615.4375 372.7656,615.4375 Q373.1406,615.4375 373.375,615.7031 Q373.6094,615.9531 373.6094,616.5625 L373.6094,618.0156 Q373.6094,618.625 373.375,618.8906 Q373.1406,619.1563 372.7656,619.1563 Q372.4219,619.1563 372.2188,618.9531 Q372.0156,618.7656 371.9063,618.25 Q371.8594,617.8906 371.6719,617.7031 Q371.3438,617.3281 370.7344,617.1094 Q370.125,616.8906 369.5,616.8906 Q368.7344,616.8906 368.0938,617.2188 Q367.4688,617.5469 366.9688,618.2969 Q366.4844,619.0469 366.4844,620.0781 L366.4844,621.1719 Q366.4844,622.4063 367.375,623.2344 Q368.2656,624.0469 369.8594,624.0469 Q370.7969,624.0469 371.4531,623.7969 Q371.8438,623.6406 372.2656,623.2031 Q372.5313,622.9375 372.6719,622.8594 Q372.8281,622.7813 373.0313,622.7813 Q373.3594,622.7813 373.6094,623.0469 Q373.875,623.2969 373.875,623.6406 Q373.875,623.9844 373.5313,624.3906 Q373.0313,624.9688 372.2344,625.2969 Q371.1563,625.75 369.8594,625.75 Q368.3438,625.75 367.1406,625.125 Q366.1563,624.625 365.4688,623.5625 Q364.7813,622.4844 364.7813,621.2031 L364.7813,620.0469 Q364.7813,618.7188 365.3906,617.5781 Q366.0156,616.4219 367.1094,615.8125 Q368.2031,615.1875 369.4375,615.1875 Q370.1719,615.1875 370.8125,615.3594 Q371.4688,615.5156 372.0156,615.875 Z " fill="#000000"/><text fill="#000000" font-family="sans-serif" font-size="14" lengthAdjust="spacing" textLength="62" x="389.75" y="625.7285">Appliance</text><line style="stroke:#181818;stroke-width:0.5;" x1="294.5" x2="514.5" y1="636" y2="636"/><rect fill="none" height="6" style="stroke:#C82930;stroke-width:1.0;" width="6" x="301.5" y="647.3047"/><text fill="#000000" font-family="sans-serif" font-size="14" lengthAdjust="spacing" textLength="84" x="313.5" y="654.5332">name : String</text><rect fill="none" height="6" style="stroke:#C82930;stroke-width:1.0;" width="6" x="301.5" y="664.9141"/><text fill="#000000" font-family="sans-serif" font-size="14" lengthAdjust="spacing" textLength="165" x="313.5" y="672.1426">activityReference : Activity</text><line style="stroke:#181818;stroke-width:0.5;" x1="294.5" x2="514.5" y1="679.2188" y2="679.2188"/><ellipse cx="304.5" cy="693.5234" fill="#84BE84" rx="3" ry="3" style="stroke:#038048;stroke-width:1.0;"/><text fill="#000000" font-family="sans-serif" font-size="14" lengthAdjust="spacing" textLength="196" x="313.5" y="697.752">getActivityReference() : Activity</text><ellipse cx="304.5" cy="711.1328" fill="#84BE84" rx="3" ry="3" style="stroke:#038048;stroke-width:1.0;"/><text fill="#000000" font-family="sans-serif" font-size="14" lengthAdjust="spacing" textLength="115" x="313.5" y="715.3613">getName() : String</text></g><!--MD5=[835878a096af039c99e3aa635285da5d]
class ActivityManager--><g id="elem_ActivityManager"><rect codeLine="45" fill="#F1F1F1" height="136.0469" id="ActivityManager" rx="2.5" ry="2.5" style="stroke:#181818;stroke-width:0.5;" width="251" x="7" y="595"/><ellipse cx="78.25" cy="611" fill="#ADD1B2" rx="11" ry="11" style="stroke:#181818;stroke-width:1.0;"/><path d="M81.0156,606.875 Q81.1719,606.6563 81.3594,606.5469 Q81.5469,606.4375 81.7656,606.4375 Q82.1406,606.4375 82.375,606.7031 Q82.6094,606.9531 82.6094,607.5625 L82.6094,609.0156 Q82.6094,609.625 82.375,609.8906 Q82.1406,610.1563 81.7656,610.1563 Q81.4219,610.1563 81.2188,609.9531 Q81.0156,609.7656 80.9063,609.25 Q80.8594,608.8906 80.6719,608.7031 Q80.3438,608.3281 79.7344,608.1094 Q79.125,607.8906 78.5,607.8906 Q77.7344,607.8906 77.0938,608.2188 Q76.4688,608.5469 75.9688,609.2969 Q75.4844,610.0469 75.4844,611.0781 L75.4844,612.1719 Q75.4844,613.4063 76.375,614.2344 Q77.2656,615.0469 78.8594,615.0469 Q79.7969,615.0469 80.4531,614.7969 Q80.8438,614.6406 81.2656,614.2031 Q81.5313,613.9375 81.6719,613.8594 Q81.8281,613.7813 82.0313,613.7813 Q82.3594,613.7813 82.6094,614.0469 Q82.875,614.2969 82.875,614.6406 Q82.875,614.9844 82.5313,615.3906 Q82.0313,615.9688 81.2344,616.2969 Q80.1563,616.75 78.8594,616.75 Q77.3438,616.75 76.1406,616.125 Q75.1563,615.625 74.4688,614.5625 Q73.7813,613.4844 73.7813,612.2031 L73.7813,611.0469 Q73.7813,609.7188 74.3906,608.5781 Q75.0156,607.4219 76.1094,606.8125 Q77.2031,606.1875 78.4375,606.1875 Q79.1719,606.1875 79.8125,606.3594 Q80.4688,606.5156 81.0156,606.875 Z " fill="#000000"/><text fill="#000000" font-family="sans-serif" font-size="14" lengthAdjust="spacing" textLength="100" x="98.75" y="616.7285">ActivityManager</text><line style="stroke:#181818;stroke-width:0.5;" x1="8" x2="257" y1="627" y2="627"/><ellipse cx="18" cy="641.3047" fill="none" rx="3" ry="3" style="stroke:#038048;stroke-width:1.0;"/><text fill="#000000" font-family="sans-serif" font-size="14" lengthAdjust="spacing" textLength="151" x="27" y="645.5332">listOfActivities : Activity[]</text><line style="stroke:#181818;stroke-width:0.5;" x1="8" x2="257" y1="652.6094" y2="652.6094"/><ellipse cx="18" cy="666.9141" fill="#84BE84" rx="3" ry="3" style="stroke:#038048;stroke-width:1.0;"/><text fill="#000000" font-family="sans-serif" font-size="14" lengthAdjust="spacing" textLength="207" x="27" y="671.1426">addActivity(Activity activity) : void</text><ellipse cx="18" cy="684.5234" fill="#84BE84" rx="3" ry="3" style="stroke:#038048;stroke-width:1.0;"/><text fill="#000000" font-family="sans-serif" font-size="14" lengthAdjust="spacing" textLength="202" x="27" y="688.752">addPoints(Activity activity) : void</text><ellipse cx="18" cy="702.1328" fill="#84BE84" rx="3" ry="3" style="stroke:#038048;stroke-width:1.0;"/><text fill="#000000" font-family="sans-serif" font-size="14" lengthAdjust="spacing" textLength="225" x="27" y="706.3613">removePoints(Activity activity) : void</text><ellipse cx="18" cy="719.7422" fill="#84BE84" rx="3" ry="3" style="stroke:#038048;stroke-width:1.0;"/><text fill="#000000" font-family="sans-serif" font-size="14" lengthAdjust="spacing" textLength="225" x="27" y="723.9707">removePower(Activity activity) : void</text></g><!--MD5=[c881b25adf3665c6568c9693d41a70f3]
class Activity--><g id="elem_Activity"><rect codeLine="54" fill="#F1F1F1" height="241.7031" id="Activity" rx="2.5" ry="2.5" style="stroke:#181818;stroke-width:0.5;" width="187" x="175" y="791"/><ellipse cx="242.25" cy="807" fill="#ADD1B2" rx="11" ry="11" style="stroke:#181818;stroke-width:1.0;"/><path d="M245.0156,802.875 Q245.1719,802.6563 245.3594,802.5469 Q245.5469,802.4375 245.7656,802.4375 Q246.1406,802.4375 246.375,802.7031 Q246.6094,802.9531 246.6094,803.5625 L246.6094,805.0156 Q246.6094,805.625 246.375,805.8906 Q246.1406,806.1563 245.7656,806.1563 Q245.4219,806.1563 245.2188,805.9531 Q245.0156,805.7656 244.9063,805.25 Q244.8594,804.8906 244.6719,804.7031 Q244.3438,804.3281 243.7344,804.1094 Q243.125,803.8906 242.5,803.8906 Q241.7344,803.8906 241.0938,804.2188 Q240.4688,804.5469 239.9688,805.2969 Q239.4844,806.0469 239.4844,807.0781 L239.4844,808.1719 Q239.4844,809.4063 240.375,810.2344 Q241.2656,811.0469 242.8594,811.0469 Q243.7969,811.0469 244.4531,810.7969 Q244.8438,810.6406 245.2656,810.2031 Q245.5313,809.9375 245.6719,809.8594 Q245.8281,809.7813 246.0313,809.7813 Q246.3594,809.7813 246.6094,810.0469 Q246.875,810.2969 246.875,810.6406 Q246.875,810.9844 246.5313,811.3906 Q246.0313,811.9688 245.2344,812.2969 Q244.1563,812.75 242.8594,812.75 Q241.3438,812.75 240.1406,812.125 Q239.1563,811.625 238.4688,810.5625 Q237.7813,809.4844 237.7813,808.2031 L237.7813,807.0469 Q237.7813,805.7188 238.3906,804.5781 Q239.0156,803.4219 240.1094,802.8125 Q241.2031,802.1875 242.4375,802.1875 Q243.1719,802.1875 243.8125,802.3594 Q244.4688,802.5156 245.0156,802.875 Z " fill="#000000"/><text fill="#000000" font-family="sans-serif" font-size="14" lengthAdjust="spacing" textLength="44" x="262.75" y="812.7285">Activity</text><line style="stroke:#181818;stroke-width:0.5;" x1="176" x2="361" y1="823" y2="823"/><rect fill="none" height="6" style="stroke:#C82930;stroke-width:1.0;" width="6" x="183" y="834.3047"/><text fill="#000000" font-family="sans-serif" font-size="14" lengthAdjust="spacing" textLength="117" x="195" y="841.5332">successPoints : int</text><rect fill="none" height="6" style="stroke:#C82930;stroke-width:1.0;" width="6" x="183" y="851.9141"/><text fill="#000000" font-family="sans-serif" font-size="14" lengthAdjust="spacing" textLength="105" x="195" y="859.1426">failurePoints : int</text><rect fill="none" height="6" style="stroke:#C82930;stroke-width:1.0;" width="6" x="183" y="869.5234"/><text fill="#000000" font-family="sans-serif" font-size="14" lengthAdjust="spacing" textLength="94" x="195" y="876.752">powerCost : int</text><rect fill="none" height="6" style="stroke:#C82930;stroke-width:1.0;" width="6" x="183" y="887.1328"/><text fill="#000000" font-family="sans-serif" font-size="14" lengthAdjust="spacing" textLength="92" x="195" y="894.3613">daily : boolean</text><rect fill="none" height="6" style="stroke:#C82930;stroke-width:1.0;" width="6" x="183" y="904.7422"/><text fill="#000000" font-family="sans-serif" font-size="14" lengthAdjust="spacing" textLength="140" x="195" y="911.9707">activityDone : boolean</text><line style="stroke:#181818;stroke-width:0.5;" x1="176" x2="361" y1="919.0469" y2="919.0469"/><ellipse cx="186" cy="933.3516" fill="#84BE84" rx="3" ry="3" style="stroke:#038048;stroke-width:1.0;"/><text fill="#000000" font-family="sans-serif" font-size="14" lengthAdjust="spacing" textLength="145" x="195" y="937.5801">setActivityDone() : void</text><ellipse cx="186" cy="950.9609" fill="#84BE84" rx="3" ry="3" style="stroke:#038048;stroke-width:1.0;"/><text fill="#000000" font-family="sans-serif" font-size="14" lengthAdjust="spacing" textLength="149" x="195" y="955.1895">getSuccessPoints() : int</text><ellipse cx="186" cy="968.5703" fill="#84BE84" rx="3" ry="3" style="stroke:#038048;stroke-width:1.0;"/><text fill="#000000" font-family="sans-serif" font-size="14" lengthAdjust="spacing" textLength="140" x="195" y="972.7988">getFailurePoints() : int</text><ellipse cx="186" cy="986.1797" fill="#84BE84" rx="3" ry="3" style="stroke:#038048;stroke-width:1.0;"/><text fill="#000000" font-family="sans-serif" font-size="14" lengthAdjust="spacing" textLength="125" x="195" y="990.4082">getPowerCost() : int</text><ellipse cx="186" cy="1003.7891" fill="#84BE84" rx="3" ry="3" style="stroke:#038048;stroke-width:1.0;"/><text fill="#000000" font-family="sans-serif" font-size="14" lengthAdjust="spacing" textLength="114" x="195" y="1008.0176">isDaily() : boolean</text><ellipse cx="186" cy="1021.3984" fill="#84BE84" rx="3" ry="3" style="stroke:#038048;stroke-width:1.0;"/><text fill="#000000" font-family="sans-serif" font-size="14" lengthAdjust="spacing" textLength="161" x="195" y="1025.627">isActivityDone() : boolean</text></g><!--MD5=[bea40b0b311589de5a2746a6f291830d]
link Game to ActivityManager--><g id="link_Game_ActivityManager"><path codeLine="69" d="M132.5,535.04 C132.5,552.75 132.5,571.95 132.5,589.93 " fill="none" id="Game-to-ActivityManager" style="stroke:#181818;stroke-width:1.0;stroke-dasharray:7.0,7.0;"/><polygon fill="#181818" points="132.5,594.96,136.5,585.96,132.5,589.96,128.5,585.96,132.5,594.96" style="stroke:#181818;stroke-width:1.0;"/></g><!--MD5=[7c31ad103c1e13678f6bcbdd36a4815c]
link Player to Inventory--><g id="link_Player_Inventory"><path codeLine="70" d="M404.5,143.04 C404.5,160.75 404.5,179.95 404.5,197.93 " fill="none" id="Player-to-Inventory" style="stroke:#181818;stroke-width:1.0;stroke-dasharray:7.0,7.0;"/><polygon fill="#181818" points="404.5,202.96,408.5,193.96,404.5,197.96,400.5,193.96,404.5,202.96" style="stroke:#181818;stroke-width:1.0;"/></g><!--MD5=[e1b2ae683ed02351daddc3242d282e46]
link Inventory to Item--><g id="link_Inventory_Item"><path codeLine="71" d="M404.5,339.04 C404.5,359.63 404.5,382.23 404.5,402.58 " fill="none" id="Inventory-to-Item" style="stroke:#181818;stroke-width:1.0;stroke-dasharray:7.0,7.0;"/><polygon fill="#181818" points="404.5,407.7,408.5,398.7,404.5,402.7,400.5,398.7,404.5,407.7" style="stroke:#181818;stroke-width:1.0;"/></g><!--MD5=[533dd25c7b2efc6fb5f531c58c26a636]
link Item to Appliance--><g id="link_Item_Appliance"><path codeLine="72" d="M404.5,526.21 C404.5,549.03 404.5,575.29 404.5,598.6 " fill="none" id="Item-to-Appliance" style="stroke:#181818;stroke-width:1.0;stroke-dasharray:7.0,7.0;"/><polygon fill="#181818" points="404.5,603.83,408.5,594.83,404.5,598.83,400.5,594.83,404.5,603.83" style="stroke:#181818;stroke-width:1.0;"/></g><!--MD5=[70e83e796cdae2dd399f36a5c1ef8d9e]
link Appliance to Activity--><g id="link_Appliance_Activity"><path codeLine="73" d="M372.44,722.22 C361.77,741.61 349.43,764.01 337.07,786.46 " fill="none" id="Appliance-to-Activity" style="stroke:#181818;stroke-width:1.0;stroke-dasharray:7.0,7.0;"/><polygon fill="#181818" points="334.6,790.95,342.4444,784.9947,337.0112,786.5698,335.4361,781.1367,334.6,790.95" style="stroke:#181818;stroke-width:1.0;"/></g><!--MD5=[8835c554d9eba386567276805e95f2b3]
link ActivityManager to Activity--><g id="link_ActivityManager_Activity"><path codeLine="74" d="M169.48,731.17 C178.84,748.16 189.19,766.95 199.57,785.81 " fill="none" id="ActivityManager-to-Activity" style="stroke:#181818;stroke-width:1.0;stroke-dasharray:7.0,7.0;"/><polygon fill="#181818" points="202.21,790.6,201.3739,780.7867,199.7988,786.2198,194.3656,784.6447,202.21,790.6" style="stroke:#181818;stroke-width:1.0;"/></g><!--MD5=[d5c5f9f1bcbea4773ab9c3207ff1944f]
@startuml Diagram

class Game {
	+ {static} day : int
	+ {static} power : int
	+ {static} points : int
	+ switchDay() : void
	+ setPower(int N) : voids11
}


class Player {
	- activeRoom : int[][]
	- points : int
	+ moveRoom() : void
	+ addItemToInventory() : void
	+ removeItemFromInventory() : void
}


class Inventory {
	- listOfItems : ArrayList<Item>
	+ getInventoryList() : ArrayList<Item>
	+ addItem(Item item) : void
	+ removeItem(Item item) : void
	+ printItems() : void
}


class Item {
	- name : String
	- applianceReference : Appliance
	+ getApplianceReference() : Appliance
	+ getItemName() : String
}


class Appliance {
	- name : String
	- activityReference : Activity
	+ getActivityReference() : Activity
	+ getName() : String
}


class ActivityManager {
	+ listOfActivities : Activity[]
	+ addActivity(Activity activity) : void
	+ addPoints(Activity activity) : void
	+ removePoints(Activity activity) : void
	+ removePower(Activity activity) : void
}


class Activity {
	- successPoints : int
	- failurePoints : int
	- powerCost : int
	- daily : boolean
	- activityDone : boolean
	+ setActivityDone() : void
	+ getSuccessPoints() : int
	+ getFailurePoints() : int
	+ getPowerCost() : int
	+ isDaily() : boolean
	+ isActivityDone() : boolean
}


Game ..> ActivityManager
Player ..> Inventory
Inventory ..> Item
Item ..> Appliance
Appliance ..> Activity
ActivityManager ..> Activity

@enduml

PlantUML version 1.2022.7(Mon Aug 22 19:01:30 CEST 2022)
(GPL source distribution)
Java Runtime: Java(TM) SE Runtime Environment
JVM: Java HotSpot(TM) 64-Bit Server VM
Default Encoding: Cp1252
Language: da
Country: DK
--></g></svg>